<?xml version="1.0" encoding="utf-8"?>

<!DOCTYPE svg PUBLIC "-//W3C//DTD SVG 1.1//EN" "http://www.w3.org/Graphics/SVG/1.1/DTD/svg11.dtd">
<!-- Uploaded to: SVG Repo, www.svgrepo.com, Generator: SVG Repo Mixer Tools -->
<svg height="800px" width="800px" version="1.1" id="_x32_" xmlns="http://www.w3.org/2000/svg" xmlns:xlink="http://www.w3.org/1999/xlink" 
	 viewBox="0 0 512 512"  xml:space="preserve">
<style type="text/css">
	.st0{fill:#000000;}
</style>
<g>
	<path class="st0" d="M233.972,228.194c-12.8,39.747,9.046,82.341,48.792,95.159c39.747,12.8,82.341-9.036,95.16-48.783
		c12.78-39.747-9.056-82.34-48.784-95.141C289.394,166.629,246.772,188.466,233.972,228.194z"/>
	<polygon class="st0" points="189.486,91.816 251.901,168.827 264.539,162.092 214.465,94.787 232.749,84.709 175.932,0 
		158.49,10.804 208.725,80.143 	"/>
	<polygon class="st0" points="130.864,169.056 221.171,199.575 228.612,186.899 153.732,157.765 164.527,138.813 75.309,98.483 
		65.737,117.378 141.697,148.165 	"/>
	<path class="st0" d="M457.589,456.129c-9.781-75.548-69.54-90.508-138.307-99.048c-0.028,0.02-168.492-20.594-168.492-20.594
		l55.737-70.266c10.641-12.285,9.332-30.873-2.952-41.533c-12.255-10.632-30.844-9.294-41.494,2.952L57.656,337.863
		c-22.83,24.778-1.567,61.479,22.39,67.525c5.98,1.5,132.547,29.803,133.96,32.248c5.063,8.903,5.56,74.364,5.56,74.364h244.537
		L457.589,456.129z"/>
</g>
</svg>