<?xml version="1.0" encoding="iso-8859-1"?>
<!-- Uploaded to: SVG Repo, www.svgrepo.com, Generator: SVG Repo Mixer Tools -->
<svg fill="#000000" height="800px" width="800px" version="1.1" id="Layer_1" xmlns="http://www.w3.org/2000/svg" xmlns:xlink="http://www.w3.org/1999/xlink" 
	 viewBox="0 0 512.002 512.002" xml:space="preserve">
<g>
	<g>
		<path d="M511.717,173.104c-1.271-5.082-6.428-8.154-11.501-6.903l-73.775,18.451l-44.819-8.96
			c-7.784-11.387-17.19-20.859-27.335-28.729h46.81l59.278-39.519c4.352-2.901,5.528-8.799,2.626-13.151
			c-2.911-4.362-8.789-5.547-13.151-2.626l-54.5,36.333h-72.391c-10.505-4.94-20.812-8.647-30.066-11.397
			c3.281-2.332,6.22-4.987,8.789-7.879c0.569,0.104,1.119,0.313,1.716,0.313c0.446,0,0.891-0.038,1.356-0.104l70.381-10.05
			l49.768-69.67c3.044-4.267,2.057-10.183-2.209-13.227c-4.257-3.053-10.183-2.067-13.227,2.209l-45.047,63.061l-52.433,7.49
			c0.55-2.655,0.901-5.367,0.901-8.154c0-0.446-0.066-0.882-0.076-1.327c16.346-4.21,28.52-18.953,28.52-36.599
			c0-20.916-17.01-37.926-37.926-37.926c-5.234,0-9.482,4.238-9.482,9.481c0,5.234,4.248,9.482,9.482,9.482
			c10.458,0,18.963,8.505,18.963,18.963c0,8.941-6.239,16.412-14.592,18.404c-8.951-16.422-28.767-27.885-51.778-27.885
			s-42.828,11.463-51.778,27.885c-8.353-1.991-14.592-9.463-14.592-18.404c0-10.458,8.505-18.963,18.963-18.963
			c5.234,0,9.482-4.248,9.482-9.482c0-5.243-4.248-9.481-9.482-9.481c-20.916,0-37.926,17.01-37.926,37.926
			c0,17.645,12.174,32.389,28.53,36.599c-0.019,0.446-0.085,0.882-0.085,1.327c0,2.788,0.351,5.499,0.901,8.154l-52.433-7.49
			l-45.047-63.061c-3.053-4.276-8.979-5.262-13.227-2.209c-4.267,3.044-5.253,8.96-2.209,13.227l49.768,69.67l70.381,10.05
			c0.465,0.066,0.91,0.104,1.356,0.104c0.597,0,1.147-0.209,1.716-0.313c2.569,2.892,5.509,5.547,8.789,7.879
			c-9.254,2.75-19.56,6.457-30.066,11.397h-72.391l-54.5-36.333c-4.362-2.92-10.24-1.735-13.151,2.626
			c-2.901,4.352-1.726,10.249,2.626,13.151l59.278,39.519h46.81c-10.145,7.87-19.551,17.342-27.335,28.729l-44.819,8.96
			l-73.775-18.451c-5.054-1.252-10.23,1.82-11.501,6.903c-1.271,5.082,1.82,10.231,6.893,11.501l75.852,18.963
			c0.758,0.19,1.526,0.284,2.304,0.284c0.616,0,1.242-0.066,1.858-0.19l31.554-6.315c-1.745,4.305-3.338,8.751-4.627,13.473
			l-6.504,54.348l0.057,0.095l-9.775,82.527c-3.973,33.792,3.309,67.006,20.518,93.516c19.532,30.085,59.25,65.953,137.586,65.953
			s118.054-35.868,137.586-65.953c17.209-26.51,24.491-59.724,20.518-93.516l-15.948-135.566l-0.275-1.403
			c-1.289-4.722-2.882-9.169-4.627-13.473l31.554,6.315c0.616,0.123,1.242,0.19,1.858,0.19c0.777,0,1.545-0.095,2.304-0.284
			l75.852-18.963C509.896,183.335,512.987,178.186,511.717,173.104z M256.001,327.112c-55.268,0-105.453-25.733-128.834-65.801
			l5.423-46.137c20.395-72.268,113.133-85.826,123.42-87.116c10.316,1.271,102.95,14.668,123.401,87.116l5.423,46.137
			C361.454,301.379,311.268,327.112,256.001,327.112z"/>
	</g>
</g>
</svg>